<svg width="24" height="24" viewBox="0 0 24 24" fill="none" xmlns="http://www.w3.org/2000/svg">
<path d="M23.7904 4.76807L16.5117 11.9999L23.7904 19.2317C23.922 18.9567 24.0018 18.6527 24.0018 18.328V5.67177C24.0018 5.34707 23.922 5.04308 23.7904 4.76807Z" fill="#FF4A3D"/>
<path d="M21.892 3.5625H2.11073C1.78603 3.5625 1.48205 3.64233 1.20703 3.77391L10.51 13.03C11.3325 13.8526 12.6702 13.8526 13.4927 13.03L22.7957 3.77391C22.5207 3.64233 22.2167 3.5625 21.892 3.5625Z" fill="#FF4A3D"/>
<path d="M0.211406 4.76807C0.0798281 5.04308 0 5.34707 0 5.67177V18.328C0 18.6527 0.0798281 18.9568 0.211406 19.2317L7.49011 11.9999L0.211406 4.76807Z" fill="#FF4A3D"/>
<path d="M15.517 12.9941L14.487 14.0241C13.1164 15.3947 10.8863 15.3947 9.51567 14.0241L8.48573 12.9941L1.20703 20.226C1.48205 20.3575 1.78603 20.4374 2.11073 20.4374H21.892C22.2167 20.4374 22.5207 20.3575 22.7957 20.226L15.517 12.9941Z" fill="#FF4A3D"/>
</svg>
