<svg width="24" height="24" viewBox="0 0 24 24" fill="none" xmlns="http://www.w3.org/2000/svg">
<g clip-path="url(#clip0_1438_558)">
<path d="M0.423911 11.5718L5.95399 13.6358L8.09447 20.5196C8.23143 20.9604 8.77055 21.1234 9.12839 20.8308L12.211 18.3179C12.5341 18.0546 12.9943 18.0415 13.332 18.2866L18.8918 22.3232C19.2746 22.6014 19.817 22.3916 19.913 21.9291L23.9858 2.3378C24.0906 1.83252 23.5942 1.411 23.113 1.59708L0.417431 10.3524C-0.142649 10.5684 -0.137769 11.3613 0.423911 11.5718ZM7.74951 12.5371L18.5574 5.88052C18.7516 5.76124 18.9514 6.02388 18.7846 6.1786L9.86503 14.4698C9.55151 14.7616 9.34927 15.1522 9.29199 15.5761L8.98815 17.8278C8.94791 18.1284 8.52559 18.1583 8.44263 17.8673L7.27407 13.7613C7.14023 13.293 7.33527 12.7928 7.74951 12.5371Z" fill="#FF4A3D"/>
</g>
<defs>
<clipPath id="clip0_1438_558">
<rect width="24" height="24" fill="white"/>
</clipPath>
</defs>
</svg>
